<svg width="84" height="80" viewBox="0 0 84 80" fill="none" xmlns="http://www.w3.org/2000/svg">
<path d="M6.16667 79.5C4.47084 79.5 3.0191 78.8962 1.81146 77.6886C0.603819 76.4809 0 75.0292 0 73.3333V9.35521C0 7.65937 0.603819 6.20764 1.81146 5C3.0191 3.79236 4.47083 3.18854 6.16667 3.18854H19.926L60.9359 3.18854L54.5 9.3552L6.16667 9.35521L6.16667 73.3333H58.3333V44L64.5 38.0952V73.3333C64.5 75.0292 63.8962 76.4809 62.6885 77.6886C61.4809 78.8962 60.0292 79.5 58.3333 79.5H6.16667Z" fill="white"/>
<path d="M40.1467 44.9238C39.2331 45.1321 38.4391 44.9134 37.7648 44.2678C37.0905 43.6221 36.8621 42.8619 37.0796 41.9872L39.6899 30.0533L52.611 42.4246L40.1467 44.9238ZM52.611 42.4246L39.6899 30.0533L69.578 1.43706C70.5786 0.479021 71.8185 0 73.2977 0C74.7769 0 76.0168 0.479021 77.0174 1.43706L82.4991 6.68546C83.4997 7.6435 84 8.83064 84 10.2469C84 11.6631 83.4997 12.8502 82.4991 13.8083L52.611 42.4246ZM73.2977 4.936L46.2809 30.8031L51.8279 36.114L78.8446 10.2469L73.2977 4.936Z" fill="white"/>
<path d="M10.9977 56.4843C10.4503 56.5574 10 56.0978 10 55.5455V53.1818C10 52.6296 10.4596 52.208 10.9865 52.0426C11.5184 51.8756 11.9429 51.5584 12.26 51.0909C12.7533 50.3637 13.7867 50 15.36 50C16.88 50 17.9 50.3637 18.42 51.0909C18.94 51.8182 19.68 52.1818 20.64 52.1818C21.6533 52.1818 22.4067 51.8182 22.9 51.0909C23.3933 50.3637 24.4267 50 26 50C27.52 50 28.5467 50.3637 29.08 51.0909C29.6133 51.8182 30.3467 52.1818 31.28 52.1818C32.2933 52.1818 33.0467 51.8182 33.54 51.0909C34.0333 50.3637 35.0667 50 36.64 50C38.16 50 39.1933 50.3637 39.74 51.0909C40.2867 51.8182 41.04 52.1818 42 52.1818C43.0133 52.1818 43.7667 51.8182 44.26 51.0909C44.7533 50.3636 45.7867 50 47.36 50C48.88 50 49.9067 50.3636 50.44 51.0909C50.7734 51.5456 51.1851 51.8582 51.6748 52.0286C52.1897 52.2077 52.648 52.6184 52.658 53.1635L52.7013 55.5271C52.7116 56.0865 52.2583 56.5576 51.704 56.4819C50.7293 56.3486 50.0347 56.0062 49.62 55.4546C49.0733 54.7273 48.32 54.3636 47.36 54.3636C46.3467 54.3636 45.6067 54.7273 45.14 55.4546C44.6733 56.1818 43.5733 56.5455 42 56.5455C40.4267 56.5455 39.38 56.1818 38.86 55.4546C38.34 54.7273 37.6 54.3637 36.64 54.3637C35.68 54.3637 34.9533 54.7273 34.46 55.4546C33.9667 56.1818 32.9333 56.5455 31.36 56.5455C29.84 56.5455 28.8067 56.1818 28.26 55.4546C27.7133 54.7273 26.96 54.3637 26 54.3637C24.9867 54.3637 24.2467 54.7273 23.78 55.4546C23.3133 56.1818 22.2933 56.5455 20.72 56.5455C19.1467 56.5455 18.1 56.1818 17.58 55.4546C17.06 54.7273 16.32 54.3637 15.36 54.3637C14.4 54.3637 13.6467 54.7273 13.1 55.4546C12.6828 56.0097 11.982 56.3529 10.9977 56.4843Z" fill="white"/>
<path d="M10.9977 67.5806C10.4503 67.6537 10 67.194 10 66.6417V64.2781C10 63.7258 10.4596 63.3043 10.9865 63.1389C11.5184 62.9719 11.9429 62.6546 12.26 62.1872C12.7533 61.4599 13.7867 61.0963 15.36 61.0963C16.88 61.0963 17.9 61.4599 18.42 62.1872C18.94 62.9145 19.68 63.2781 20.64 63.2781C21.6533 63.2781 22.4067 62.9145 22.9 62.1872C23.3933 61.4599 24.4267 61.0963 26 61.0963C27.52 61.0963 28.5467 61.4599 29.08 62.1872C29.6133 62.9145 30.3467 63.2781 31.28 63.2781C32.2933 63.2781 33.0467 62.9145 33.54 62.1872C34.0333 61.4599 35.0667 61.0963 36.64 61.0963C38.16 61.0963 39.1933 61.4599 39.74 62.1872C40.2867 62.9145 41.04 63.2781 42 63.2781C43.0133 63.2781 43.7667 62.9144 44.26 62.1872C44.7533 61.4599 45.7867 61.0963 47.36 61.0963C48.88 61.0963 49.9067 61.4599 50.44 62.1872C50.7734 62.6419 51.1851 62.9544 51.6748 63.1248C52.1897 63.304 52.648 63.7147 52.658 64.2598L52.7013 66.6234C52.7116 67.1828 52.2583 67.6539 51.704 67.5781C50.7293 67.4449 50.0347 67.1025 49.62 66.5508C49.0733 65.8235 48.32 65.4599 47.36 65.4599C46.3467 65.4599 45.6067 65.8235 45.14 66.5508C44.6733 67.2781 43.5733 67.6417 42 67.6417C40.4267 67.6417 39.38 67.2781 38.86 66.5508C38.34 65.8236 37.6 65.4599 36.64 65.4599C35.68 65.4599 34.9533 65.8236 34.46 66.5508C33.9667 67.2781 32.9333 67.6417 31.36 67.6417C29.84 67.6417 28.8067 67.2781 28.26 66.5508C27.7133 65.8236 26.96 65.4599 26 65.4599C24.9867 65.4599 24.2467 65.8236 23.78 66.5508C23.3133 67.2781 22.2933 67.6417 20.72 67.6417C19.1467 67.6417 18.1 67.2781 17.58 66.5508C17.06 65.8236 16.32 65.4599 15.36 65.4599C14.4 65.4599 13.6467 65.8236 13.1 66.5508C12.6828 67.1059 11.982 67.4492 10.9977 67.5806Z" fill="white"/>
<path d="M12.26 16.5726C11.9464 17.0349 11.5278 17.3502 11.0041 17.5187C10.4715 17.69 10.0084 18.1225 10.0187 18.6818L10.062 21.0455C10.072 21.5905 10.5188 22.0385 11.0599 21.9719C12.091 21.8451 12.7977 21.4999 13.18 20.9362C13.6733 20.209 14.4 19.8453 15.36 19.8453C16.32 19.8453 17.06 20.209 17.58 20.9362C18.1 21.6635 19.1467 22.0271 20.72 22.0271C22.2933 22.0271 23.3933 21.6635 23.86 20.9362C24.3267 20.2089 25.0667 19.8453 26.08 19.8453C27.04 19.8453 27.7933 20.2089 28.34 20.9362C28.7547 21.4879 29.4493 21.8303 30.424 21.9635C30.9783 22.0393 31.4316 21.5682 31.4213 21.0088L31.378 18.6452C31.368 18.1001 30.9097 17.6894 30.3948 17.5102C29.9051 17.3398 29.4934 17.0273 29.16 16.5726C28.6267 15.8453 27.6 15.4817 26.08 15.4817C24.5067 15.4817 23.4733 15.8453 22.98 16.5726C22.4867 17.2999 21.7333 17.6635 20.72 17.6635C19.76 17.6635 19.0067 17.2999 18.46 16.5726C17.9133 15.8453 16.88 15.4817 15.36 15.4817C13.7867 15.4817 12.7533 15.8453 12.26 16.5726Z" fill="white"/>
</svg>
