<svg width="256" height="80" viewBox="0 0 256 80" fill="none" stroke="currentColor" xmlns="http://www.w3.org/2000/svg">
<path d="M113.76 15.0966C113.9 15.331 113.971 15.87 113.971 16.7138C114.018 17.5575 113.994 18.4716 113.9 19.456C113.807 20.4403 113.666 21.4013 113.479 22.3388C113.338 23.2294 113.174 23.8153 112.986 24.0966C112.846 24.331 111.979 24.4247 110.385 24.3778C108.838 24.2841 106.611 24.0497 103.705 23.6747C103.705 25.5028 103.682 27.8466 103.635 30.706C103.588 33.5653 103.494 36.6357 103.354 39.9169C103.26 43.1513 103.143 46.4091 103.002 49.6903C102.908 52.9716 102.791 55.9482 102.65 58.62C102.51 61.2919 102.369 63.4716 102.229 65.1591C102.088 66.8466 101.971 67.7372 101.877 67.831C101.689 67.9716 101.361 67.9013 100.893 67.62C100.471 67.3857 100.025 67.0341 99.5566 66.5653C99.0879 66.0966 98.6426 65.6278 98.2207 65.1591C97.8457 64.6435 97.5879 64.1982 97.4473 63.8232C97.4004 63.6357 97.3066 62.7216 97.166 61.081C97.0723 59.4403 96.9551 57.3778 96.8145 54.8935C96.6738 52.4091 96.5098 49.6435 96.3223 46.5966C96.1348 43.5497 95.9473 40.5263 95.7598 37.5263C95.5723 34.5263 95.3613 31.7138 95.127 29.0888C94.9395 26.4638 94.7754 24.2841 94.6348 22.5497C91.4473 22.2216 89.1504 21.8935 87.7441 21.5653C86.3379 21.2372 85.541 20.9794 85.3535 20.7919C85.166 20.6044 84.9785 20.2528 84.791 19.7372C84.5566 19.1747 84.3691 18.6122 84.2285 18.0497C84.0879 17.4872 84.0176 16.9716 84.0176 16.5028C83.9707 15.9872 84.0176 15.6591 84.1582 15.5185C84.252 15.4247 85.0488 15.331 86.5488 15.2372C88.002 15.1435 89.8066 15.0497 91.9629 14.956C94.1191 14.8622 96.4395 14.7919 98.9238 14.745C101.455 14.6982 103.799 14.6747 105.955 14.6747C108.111 14.6747 109.916 14.7216 111.369 14.8153C112.869 14.8622 113.666 14.956 113.76 15.0966Z" fill="white"/>
<path d="M128.596 28.5263C128.924 28.8075 129.229 29.3466 129.51 30.1435C129.838 30.9403 130.119 31.9013 130.354 33.0263C130.588 34.1513 130.799 35.37 130.986 36.6825C131.174 37.995 131.338 39.2841 131.479 40.5497C131.619 41.8153 131.713 43.0107 131.76 44.1357C131.854 45.2138 131.924 46.1044 131.971 46.8075C132.018 47.6513 132.041 48.5419 132.041 49.4794C132.088 50.37 132.088 51.2372 132.041 52.081C132.041 52.8778 131.994 53.6044 131.9 54.2607C131.854 54.9169 131.76 55.4091 131.619 55.7372C131.338 56.4403 130.846 56.9325 130.143 57.2138C129.486 57.4482 128.736 57.6122 127.893 57.706C127.471 57.7528 126.744 57.7763 125.713 57.7763C124.729 57.7294 123.65 57.6825 122.479 57.6357C121.354 57.5419 120.275 57.4482 119.244 57.3544C118.213 57.2607 117.439 57.1669 116.924 57.0732C115.893 56.8388 115.143 56.5341 114.674 56.1591C114.252 55.7841 113.83 55.245 113.408 54.5419C113.268 54.2607 113.15 53.5575 113.057 52.4325C112.963 51.2607 112.893 49.8778 112.846 48.2841C112.846 46.6435 112.869 44.8857 112.916 43.0107C112.963 41.1357 113.033 39.3544 113.127 37.6669C113.268 35.9794 113.408 34.5028 113.549 33.2372C113.736 31.9716 113.971 31.1278 114.252 30.706C114.721 30.0497 115.518 29.4403 116.643 28.8778C117.814 28.3153 118.869 27.87 119.807 27.5419C120.275 27.4013 120.885 27.3075 121.635 27.2607C122.432 27.1669 123.252 27.1669 124.096 27.2607C124.986 27.3075 125.83 27.4482 126.627 27.6825C127.424 27.87 128.08 28.1513 128.596 28.5263ZM124.658 50.3232C124.752 50.1357 124.846 49.5732 124.939 48.6357C125.08 47.6513 125.174 46.4794 125.221 45.12C125.314 43.7607 125.361 42.3075 125.361 40.7607C125.408 39.2138 125.432 37.7841 125.432 36.4716C125.432 35.1591 125.385 34.0575 125.291 33.1669C125.197 32.2294 125.08 31.6903 124.939 31.5497C124.705 31.3622 124.354 31.2919 123.885 31.3388C123.463 31.3388 123.018 31.4091 122.549 31.5497C122.08 31.6435 121.658 31.7841 121.283 31.9716C120.908 32.1122 120.65 32.2528 120.51 32.3935C119.9 32.9091 119.572 33.7528 119.525 34.9247C119.525 35.2528 119.479 36.1903 119.385 37.7372C119.338 39.2372 119.314 40.8778 119.314 42.6591C119.314 44.3935 119.338 46.0107 119.385 47.5107C119.479 49.0107 119.643 49.9247 119.877 50.2528C120.111 50.581 120.439 50.8388 120.861 51.0263C121.33 51.1669 121.799 51.2372 122.268 51.2372C122.783 51.2372 123.252 51.1669 123.674 51.0263C124.143 50.8388 124.471 50.6044 124.658 50.3232Z" fill="white"/>
<path d="M155.455 20.4403C155.596 21.5653 155.643 23.8153 155.596 27.1903C155.596 28.6435 155.549 30.4013 155.455 32.4638C155.408 34.5263 155.314 37.0107 155.174 39.9169C155.033 42.7763 154.846 46.1044 154.611 49.9013C154.424 53.6513 154.166 57.9169 153.838 62.6982C153.744 63.1669 153.533 63.6825 153.205 64.245C152.924 64.8075 152.596 65.3232 152.221 65.7919C151.846 66.2607 151.447 66.6591 151.025 66.9872C150.604 67.2685 150.229 67.3622 149.9 67.2685C149.807 67.2216 149.689 66.8466 149.549 66.1435C149.455 65.4403 149.361 64.456 149.268 63.1903C147.158 64.1278 145.166 64.7607 143.291 65.0888C141.416 65.4169 139.893 65.206 138.721 64.456C138.252 64.1747 137.783 63.6825 137.314 62.9794C136.893 62.2294 136.494 61.3622 136.119 60.3778C135.744 59.3935 135.439 58.3622 135.205 57.2841C134.971 56.1591 134.854 55.1044 134.854 54.12C134.854 53.4169 134.9 52.4794 134.994 51.3075C135.088 50.1357 135.205 48.87 135.346 47.5107C135.486 46.1044 135.65 44.6982 135.838 43.2919C136.025 41.8388 136.213 40.5028 136.4 39.2841C136.588 38.0653 136.752 37.0341 136.893 36.1903C137.033 35.3466 137.15 34.831 137.244 34.6435C137.338 34.081 137.502 33.6122 137.736 33.2372C138.018 32.8622 138.252 32.581 138.439 32.3935C138.908 32.0185 139.588 31.7372 140.479 31.5497C141.416 31.3622 142.377 31.245 143.361 31.1982C144.393 31.1513 145.354 31.1747 146.244 31.2685C147.135 31.3153 147.791 31.4091 148.213 31.5497H148.354C148.26 25.7372 148.26 21.2607 148.354 18.12C148.447 14.9794 148.635 13.2919 148.916 13.0575C149.104 12.9169 149.525 13.0341 150.182 13.4091C150.838 13.7841 151.518 14.3232 152.221 15.0263C152.971 15.7294 153.65 16.5732 154.26 17.5575C154.916 18.495 155.314 19.456 155.455 20.4403ZM144.768 59.8153C145.424 59.6747 146.01 59.5107 146.525 59.3232C147.088 59.0888 147.557 58.8778 147.932 58.6903C148.354 58.5028 148.705 58.2685 148.986 57.9872C148.939 56.7685 148.893 55.4091 148.846 53.9091C148.799 52.3622 148.752 50.7685 148.705 49.1278C148.658 47.4872 148.611 45.8232 148.564 44.1357C148.518 42.4013 148.471 40.7372 148.424 39.1435C148.424 38.6278 148.33 38.1825 148.143 37.8075C148.002 37.4325 147.814 37.1278 147.58 36.8935C147.439 36.7997 147.158 36.6825 146.736 36.5419C146.314 36.3544 145.822 36.2138 145.26 36.12C144.744 35.9794 144.229 35.9091 143.713 35.9091C143.244 35.9091 142.916 36.0028 142.729 36.1903C142.635 36.2372 142.541 36.706 142.447 37.5966C142.4 38.4403 142.33 39.5185 142.236 40.831C142.189 42.0966 142.119 43.4794 142.025 44.9794C141.979 46.4794 141.932 47.8857 141.885 49.1982C141.838 50.5107 141.791 51.6357 141.744 52.5732C141.697 53.5107 141.674 54.0263 141.674 54.12C141.674 54.9169 141.768 55.6669 141.955 56.37C142.189 57.0732 142.471 57.706 142.799 58.2685C143.127 58.7841 143.479 59.206 143.854 59.5341C144.229 59.8153 144.533 59.9091 144.768 59.8153Z" fill="white"/>
<path d="M174.58 28.5263C174.908 28.8075 175.213 29.3466 175.494 30.1435C175.822 30.9403 176.104 31.9013 176.338 33.0263C176.572 34.1513 176.783 35.37 176.971 36.6825C177.158 37.995 177.322 39.2841 177.463 40.5497C177.604 41.8153 177.697 43.0107 177.744 44.1357C177.838 45.2138 177.908 46.1044 177.955 46.8075C178.002 47.6513 178.025 48.5419 178.025 49.4794C178.072 50.37 178.072 51.2372 178.025 52.081C178.025 52.8778 177.979 53.6044 177.885 54.2607C177.838 54.9169 177.744 55.4091 177.604 55.7372C177.322 56.4403 176.83 56.9325 176.127 57.2138C175.471 57.4482 174.721 57.6122 173.877 57.706C173.455 57.7528 172.729 57.7763 171.697 57.7763C170.713 57.7294 169.635 57.6825 168.463 57.6357C167.338 57.5419 166.26 57.4482 165.229 57.3544C164.197 57.2607 163.424 57.1669 162.908 57.0732C161.877 56.8388 161.127 56.5341 160.658 56.1591C160.236 55.7841 159.814 55.245 159.393 54.5419C159.252 54.2607 159.135 53.5575 159.041 52.4325C158.947 51.2607 158.877 49.8778 158.83 48.2841C158.83 46.6435 158.854 44.8857 158.9 43.0107C158.947 41.1357 159.018 39.3544 159.111 37.6669C159.252 35.9794 159.393 34.5028 159.533 33.2372C159.721 31.9716 159.955 31.1278 160.236 30.706C160.705 30.0497 161.502 29.4403 162.627 28.8778C163.799 28.3153 164.854 27.87 165.791 27.5419C166.26 27.4013 166.869 27.3075 167.619 27.2607C168.416 27.1669 169.236 27.1669 170.08 27.2607C170.971 27.3075 171.814 27.4482 172.611 27.6825C173.408 27.87 174.064 28.1513 174.58 28.5263ZM170.643 50.3232C170.736 50.1357 170.83 49.5732 170.924 48.6357C171.064 47.6513 171.158 46.4794 171.205 45.12C171.299 43.7607 171.346 42.3075 171.346 40.7607C171.393 39.2138 171.416 37.7841 171.416 36.4716C171.416 35.1591 171.369 34.0575 171.275 33.1669C171.182 32.2294 171.064 31.6903 170.924 31.5497C170.689 31.3622 170.338 31.2919 169.869 31.3388C169.447 31.3388 169.002 31.4091 168.533 31.5497C168.064 31.6435 167.643 31.7841 167.268 31.9716C166.893 32.1122 166.635 32.2528 166.494 32.3935C165.885 32.9091 165.557 33.7528 165.51 34.9247C165.51 35.2528 165.463 36.1903 165.369 37.7372C165.322 39.2372 165.299 40.8778 165.299 42.6591C165.299 44.3935 165.322 46.0107 165.369 47.5107C165.463 49.0107 165.627 49.9247 165.861 50.2528C166.096 50.581 166.424 50.8388 166.846 51.0263C167.314 51.1669 167.783 51.2372 168.252 51.2372C168.768 51.2372 169.236 51.1669 169.658 51.0263C170.127 50.8388 170.455 50.6044 170.643 50.3232Z" fill="white"/>
<path d="M182.455 69.1669C182.361 68.9325 182.314 68.0888 182.314 66.6357C182.314 65.1825 182.314 63.3544 182.314 61.1513C182.361 58.9482 182.408 56.4872 182.455 53.7685C182.549 51.0028 182.619 48.2138 182.666 45.4013C182.76 42.5419 182.854 39.7763 182.947 37.1044C183.041 34.3857 183.111 31.9716 183.158 29.8622C183.252 27.7528 183.322 26.0419 183.369 24.7294C183.416 23.37 183.463 22.6435 183.51 22.5497C183.557 22.3622 183.768 21.8935 184.143 21.1435C184.518 20.3935 184.939 19.62 185.408 18.8232C185.924 17.9794 186.439 17.2528 186.955 16.6435C187.471 15.9872 187.916 15.6825 188.291 15.7294C188.432 15.7763 188.549 16.7138 188.643 18.5419C188.783 20.3232 188.9 22.62 188.994 25.4325C189.135 28.245 189.229 31.3622 189.275 34.7841C189.369 38.1591 189.439 41.4638 189.486 44.6982C189.58 47.8857 189.65 50.7919 189.697 53.4169C189.744 55.995 189.791 57.8935 189.838 59.1122C191.338 59.2528 192.838 59.37 194.338 59.4638C195.885 59.5575 197.268 59.6747 198.486 59.8153C199.705 59.9091 200.689 60.0028 201.439 60.0966C202.236 60.1903 202.658 60.2607 202.705 60.3075C202.846 60.495 203.033 60.9403 203.268 61.6435C203.549 62.2997 203.807 63.0263 204.041 63.8232C204.275 64.5732 204.439 65.2763 204.533 65.9325C204.674 66.5888 204.65 66.9872 204.463 67.1278C199.072 68.1122 194.9 68.7685 191.947 69.0966C188.994 69.4247 186.814 69.5888 185.408 69.5888C183.768 69.5888 182.783 69.4482 182.455 69.1669Z" fill="white"/>
<path d="M211.705 36.7528C211.799 36.9872 211.846 37.7372 211.846 39.0028C211.893 40.2216 211.893 41.7216 211.846 43.5028C211.846 45.2372 211.799 47.1122 211.705 49.1278C211.611 51.0966 211.494 52.9716 211.354 54.7528C211.26 56.4872 211.143 57.9872 211.002 59.2528C210.861 60.4716 210.721 61.1982 210.58 61.4325C210.158 62.0888 209.525 62.5107 208.682 62.6982C207.838 62.8388 207.229 62.8622 206.854 62.7685C206.666 62.7685 206.455 62.2294 206.221 61.1513C206.033 60.0732 205.846 58.7138 205.658 57.0732C205.471 55.4325 205.307 53.6513 205.166 51.7294C205.025 49.8075 204.908 47.9794 204.814 46.245C204.721 44.4638 204.674 42.9169 204.674 41.6044C204.674 40.2919 204.721 39.4482 204.814 39.0732C204.955 38.4638 205.354 37.9247 206.01 37.456C206.713 36.9872 207.439 36.6357 208.189 36.4013C208.986 36.1669 209.713 36.0732 210.369 36.12C211.072 36.12 211.518 36.331 211.705 36.7528ZM212.057 25.3622C212.244 25.7372 212.314 26.2528 212.268 26.9091C212.268 27.5653 212.197 28.245 212.057 28.9482C211.916 29.6513 211.729 30.331 211.494 30.9872C211.26 31.6435 211.025 32.1591 210.791 32.5341C210.322 33.1903 209.619 33.6122 208.682 33.7997C207.791 33.9403 207.135 33.9638 206.713 33.87C206.385 33.8232 206.057 33.6122 205.729 33.2372C205.4 32.8153 205.119 32.3232 204.885 31.7607C204.65 31.1513 204.486 30.495 204.393 29.7919C204.299 29.0888 204.322 28.4325 204.463 27.8232C204.604 27.2138 205.049 26.6747 205.799 26.206C206.549 25.6903 207.346 25.3153 208.189 25.081C209.033 24.7997 209.83 24.6825 210.58 24.7294C211.33 24.7294 211.822 24.9403 212.057 25.3622Z" fill="white"/>
<path d="M237.58 32.3935C237.627 32.9091 237.533 33.706 237.299 34.7841C237.111 35.8622 236.807 36.9403 236.385 38.0185C236.01 39.0966 235.494 40.0341 234.838 40.831C234.229 41.6278 233.525 42.0263 232.729 42.0263C232.166 42.0263 231.697 41.581 231.322 40.6903C230.994 39.7997 230.736 38.7685 230.549 37.5966C230.408 36.3778 230.291 35.1825 230.197 34.0107C230.104 32.8388 230.01 32.0185 229.916 31.5497C229.775 31.3153 229.494 31.1044 229.072 30.9169C228.697 30.6825 228.322 30.5653 227.947 30.5653C227.572 30.5653 227.15 30.87 226.682 31.4794C226.213 32.0888 225.744 32.7919 225.275 33.5888C224.854 34.3857 224.479 35.1825 224.15 35.9794C223.869 36.7763 223.752 37.3622 223.799 37.7372C223.799 38.0185 224.104 38.5107 224.713 39.2138C225.322 39.9169 226.072 40.7607 226.963 41.745C227.9 42.6825 228.885 43.7138 229.916 44.8388C230.994 45.9169 231.979 47.0185 232.869 48.1435C233.76 49.2216 234.51 50.2528 235.119 51.2372C235.775 52.2216 236.127 53.0653 236.174 53.7685C236.221 54.6122 235.986 55.6903 235.471 57.0028C235.002 58.3153 234.393 59.581 233.643 60.7997C232.893 62.0185 232.096 63.0732 231.252 63.9638C230.408 64.8544 229.658 65.3232 229.002 65.37C228.346 65.4169 227.385 65.0653 226.119 64.3153C224.9 63.5185 223.658 62.6044 222.393 61.5732C221.174 60.495 220.072 59.4403 219.088 58.4091C218.15 57.3778 217.611 56.6278 217.471 56.1591C217.33 55.7372 217.236 55.1747 217.189 54.4716C217.189 53.7685 217.213 53.0653 217.26 52.3622C217.354 51.6591 217.494 51.0732 217.682 50.6044C217.869 50.0888 218.104 49.831 218.385 49.831C218.666 49.831 219.229 50.3232 220.072 51.3075C220.916 52.245 221.83 53.3232 222.814 54.5419C223.799 55.7138 224.76 56.7919 225.697 57.7763C226.635 58.7138 227.314 59.1825 227.736 59.1825C227.971 59.1825 228.229 59.0185 228.51 58.6903C228.791 58.3153 229.049 57.8935 229.283 57.4247C229.518 56.956 229.705 56.4872 229.846 56.0185C230.033 55.5028 230.127 55.1044 230.127 54.8232C230.08 54.4013 229.705 53.7919 229.002 52.995C228.299 52.1982 227.408 51.3075 226.33 50.3232C225.252 49.3388 224.08 48.3075 222.814 47.2294C221.549 46.1044 220.377 45.0497 219.299 44.0653C218.221 43.081 217.33 42.1903 216.627 41.3935C215.924 40.5966 215.549 39.9872 215.502 39.5653C215.455 39.1435 215.596 38.4872 215.924 37.5966C216.252 36.6591 216.674 35.6513 217.189 34.5732C217.705 33.4482 218.291 32.2997 218.947 31.1278C219.65 29.956 220.354 28.8778 221.057 27.8935C221.76 26.9091 222.439 26.1122 223.096 25.5028C223.799 24.8466 224.408 24.5185 224.924 24.5185C225.955 24.5185 227.174 24.7997 228.58 25.3622C230.033 25.9247 231.416 26.6278 232.729 27.4716C234.041 28.2685 235.166 29.1122 236.104 30.0028C237.041 30.8935 237.533 31.6903 237.58 32.3935Z" fill="white"/>
<path d="M255.299 30.8466C255.346 30.9872 255.346 31.3857 255.299 32.0419C255.252 32.6513 255.158 33.3544 255.018 34.1513C254.924 34.9013 254.807 35.6044 254.666 36.2607C254.525 36.87 254.408 37.245 254.314 37.3857C253.846 37.4325 253.377 37.456 252.908 37.456C252.439 37.4091 251.994 37.3857 251.572 37.3857H250.096C250.049 40.4794 249.979 43.5497 249.885 46.5966C249.791 49.6435 249.674 52.3857 249.533 54.8232C249.393 57.2138 249.229 59.1591 249.041 60.6591C248.9 62.1591 248.76 62.9325 248.619 62.9794C248.291 63.0263 247.916 62.8857 247.494 62.5575C247.072 62.2294 246.65 61.831 246.229 61.3622C245.854 60.8466 245.502 60.331 245.174 59.8153C244.893 59.2528 244.729 58.7607 244.682 58.3388C244.447 55.4794 244.236 52.7607 244.049 50.1825C243.861 47.5575 243.721 45.2372 243.627 43.2216C243.439 40.8778 243.322 38.6982 243.275 36.6825C242.76 36.6357 242.244 36.5653 241.729 36.4716C241.26 36.3778 240.768 36.2841 240.252 36.1903C239.783 36.0966 239.291 36.0028 238.775 35.9091C238.682 35.8153 238.564 35.6044 238.424 35.2763C238.283 34.9013 238.143 34.5028 238.002 34.081C237.908 33.6591 237.814 33.2607 237.721 32.8857C237.627 32.4638 237.58 32.1591 237.58 31.9716C237.58 31.831 238.096 31.6903 239.127 31.5497C240.205 31.4091 241.518 31.2919 243.064 31.1982C242.971 28.7138 242.9 26.5575 242.854 24.7294C242.854 22.8544 242.924 21.5888 243.064 20.9325C243.205 20.0419 243.58 19.1982 244.189 18.4013C244.846 17.5575 245.525 16.831 246.229 16.2216C246.979 15.6122 247.658 15.1669 248.268 14.8857C248.924 14.5575 249.346 14.4638 249.533 14.6044C249.674 14.6982 249.791 15.1903 249.885 16.081C249.979 16.9247 250.049 18.0732 250.096 19.5263C250.143 20.9794 250.166 22.6903 250.166 24.6591C250.166 26.581 250.166 28.62 250.166 30.7763C251.572 30.6825 252.768 30.6591 253.752 30.706C254.736 30.706 255.252 30.7528 255.299 30.8466Z" fill="white"/>
<path d="M6.16666 79.5C4.47082 79.5 3.01909 78.8962 1.81145 77.6886C0.603808 76.4809 -1.14441e-05 75.0292 -1.14441e-05 73.3333V9.35521C-1.14441e-05 7.65937 0.603808 6.20763 1.81145 5C3.01909 3.79236 4.47082 3.18854 6.16666 3.18854L60.9359 3.18854L54.5 9.3552L6.16666 9.35521L6.16666 73.3333H58.3333V44L64.5 38.0952V73.3333C64.5 75.0292 63.8962 76.4809 62.6885 77.6886C61.4809 78.8962 60.0292 79.5 58.3333 79.5H6.16666Z" fill="white"/>
<path d="M40.1467 44.9238C39.2331 45.1321 38.4391 44.9134 37.7648 44.2678C37.0905 43.6221 36.8621 42.8619 37.0796 41.9872L39.6899 30.0533L52.611 42.4246L40.1467 44.9238ZM52.611 42.4246L39.6899 30.0533L69.578 1.43706C70.5786 0.479021 71.8185 0 73.2977 0C74.7769 0 76.0168 0.479021 77.0174 1.43706L82.4991 6.68546C83.4997 7.6435 84 8.83064 84 10.2469C84 11.6631 83.4997 12.8502 82.4991 13.8083L52.611 42.4246ZM73.2977 4.936L46.2809 30.8031L51.8279 36.114L78.8446 10.2469L73.2977 4.936Z" fill="white"/>
<path d="M10.9977 56.4843C10.4503 56.5574 10 56.0978 10 55.5455V53.1818C10 52.6296 10.4596 52.208 10.9865 52.0426C11.5184 51.8756 11.9429 51.5584 12.26 51.0909C12.7533 50.3637 13.7867 50 15.36 50C16.88 50 17.9 50.3637 18.42 51.0909C18.94 51.8182 19.68 52.1818 20.64 52.1818C21.6533 52.1818 22.4067 51.8182 22.9 51.0909C23.3933 50.3637 24.4267 50 26 50C27.52 50 28.5467 50.3637 29.08 51.0909C29.6133 51.8182 30.3467 52.1818 31.28 52.1818C32.2933 52.1818 33.0467 51.8182 33.54 51.0909C34.0333 50.3637 35.0667 50 36.64 50C38.16 50 39.1933 50.3637 39.74 51.0909C40.2867 51.8182 41.04 52.1818 42 52.1818C43.0133 52.1818 43.7667 51.8182 44.26 51.0909C44.7533 50.3636 45.7867 50 47.36 50C48.88 50 49.9067 50.3636 50.44 51.0909C50.7734 51.5456 51.1851 51.8582 51.6748 52.0286C52.1897 52.2077 52.648 52.6184 52.658 53.1635L52.7013 55.5271C52.7116 56.0865 52.2583 56.5576 51.704 56.4819C50.7293 56.3486 50.0347 56.0062 49.62 55.4546C49.0733 54.7273 48.32 54.3636 47.36 54.3636C46.3467 54.3636 45.6067 54.7273 45.14 55.4546C44.6733 56.1818 43.5733 56.5455 42 56.5455C40.4267 56.5455 39.38 56.1818 38.86 55.4546C38.34 54.7273 37.6 54.3637 36.64 54.3637C35.68 54.3637 34.9533 54.7273 34.46 55.4546C33.9667 56.1818 32.9333 56.5455 31.36 56.5455C29.84 56.5455 28.8067 56.1818 28.26 55.4546C27.7133 54.7273 26.96 54.3637 26 54.3637C24.9867 54.3637 24.2467 54.7273 23.78 55.4546C23.3133 56.1818 22.2933 56.5455 20.72 56.5455C19.1467 56.5455 18.1 56.1818 17.58 55.4546C17.06 54.7273 16.32 54.3637 15.36 54.3637C14.4 54.3637 13.6467 54.7273 13.1 55.4546C12.6828 56.0097 11.982 56.3529 10.9977 56.4843Z" fill="white"/>
<path d="M10.9977 67.5806C10.4503 67.6537 10 67.194 10 66.6417V64.2781C10 63.7258 10.4596 63.3043 10.9865 63.1389C11.5184 62.9719 11.9429 62.6546 12.26 62.1872C12.7533 61.4599 13.7867 61.0963 15.36 61.0963C16.88 61.0963 17.9 61.4599 18.42 62.1872C18.94 62.9145 19.68 63.2781 20.64 63.2781C21.6533 63.2781 22.4067 62.9145 22.9 62.1872C23.3933 61.4599 24.4267 61.0963 26 61.0963C27.52 61.0963 28.5467 61.4599 29.08 62.1872C29.6133 62.9145 30.3467 63.2781 31.28 63.2781C32.2933 63.2781 33.0467 62.9145 33.54 62.1872C34.0333 61.4599 35.0667 61.0963 36.64 61.0963C38.16 61.0963 39.1933 61.4599 39.74 62.1872C40.2867 62.9145 41.04 63.2781 42 63.2781C43.0133 63.2781 43.7667 62.9144 44.26 62.1872C44.7533 61.4599 45.7867 61.0963 47.36 61.0963C48.88 61.0963 49.9067 61.4599 50.44 62.1872C50.7734 62.6419 51.1851 62.9544 51.6748 63.1248C52.1897 63.304 52.648 63.7147 52.658 64.2598L52.7013 66.6234C52.7116 67.1827 52.2583 67.6539 51.704 67.5781C50.7293 67.4449 50.0347 67.1025 49.62 66.5508C49.0733 65.8235 48.32 65.4599 47.36 65.4599C46.3467 65.4599 45.6067 65.8235 45.14 66.5508C44.6733 67.2781 43.5733 67.6417 42 67.6417C40.4267 67.6417 39.38 67.2781 38.86 66.5508C38.34 65.8236 37.6 65.4599 36.64 65.4599C35.68 65.4599 34.9533 65.8236 34.46 66.5508C33.9667 67.2781 32.9333 67.6417 31.36 67.6417C29.84 67.6417 28.8067 67.2781 28.26 66.5508C27.7133 65.8236 26.96 65.4599 26 65.4599C24.9867 65.4599 24.2467 65.8236 23.78 66.5508C23.3133 67.2781 22.2933 67.6417 20.72 67.6417C19.1467 67.6417 18.1 67.2781 17.58 66.5508C17.06 65.8236 16.32 65.4599 15.36 65.4599C14.4 65.4599 13.6467 65.8236 13.1 66.5508C12.6828 67.1059 11.982 67.4492 10.9977 67.5806Z" fill="white"/>
<path d="M12.26 16.5726C11.9464 17.0349 11.5278 17.3502 11.0041 17.5187C10.4715 17.69 10.0084 18.1225 10.0187 18.6818L10.062 21.0455C10.072 21.5905 10.5188 22.0385 11.0599 21.9719C12.091 21.8451 12.7977 21.4999 13.18 20.9362C13.6733 20.209 14.4 19.8453 15.36 19.8453C16.32 19.8453 17.06 20.209 17.58 20.9362C18.1 21.6635 19.1467 22.0271 20.72 22.0271C22.2933 22.0271 23.3933 21.6635 23.86 20.9362C24.3267 20.2089 25.0667 19.8453 26.08 19.8453C27.04 19.8453 27.7933 20.2089 28.34 20.9362C28.7547 21.4879 29.4493 21.8303 30.424 21.9635C30.9783 22.0393 31.4316 21.5682 31.4213 21.0088L31.378 18.6452C31.368 18.1001 30.9097 17.6894 30.3948 17.5102C29.9051 17.3398 29.4934 17.0273 29.16 16.5726C28.6267 15.8453 27.6 15.4817 26.08 15.4817C24.5067 15.4817 23.4733 15.8453 22.98 16.5726C22.4867 17.2999 21.7333 17.6635 20.72 17.6635C19.76 17.6635 19.0067 17.2999 18.46 16.5726C17.9133 15.8453 16.88 15.4817 15.36 15.4817C13.7867 15.4817 12.7533 15.8453 12.26 16.5726Z" fill="white"/>
</svg>
